<svg width="25" height="24" viewBox="0 0 25 24" fill="none" xmlns="http://www.w3.org/2000/svg">
<path d="M5.14437 9.94011C4.81587 9.90257 4.61956 9.89866 4.43263 9.85486C4.22739 9.80731 4.0461 9.68751 3.92189 9.51734C3.79767 9.34718 3.73882 9.13801 3.75609 8.92804C3.76858 8.71757 3.85793 8.51902 4.00715 8.37008C4.15638 8.22114 4.3551 8.13218 4.56559 8.1201C4.98794 8.10524 5.42593 8.0192 5.817 8.29373C6.00393 8.42513 5.99298 8.21552 6.02348 8.1287C6.17521 7.69618 6.30583 7.25975 6.45756 6.82958C6.73053 6.05293 7.22796 5.6955 8.04216 5.6955C11.1832 5.6955 14.3245 5.6955 17.466 5.6955C18.2622 5.6955 18.7605 6.0498 19.0303 6.80377C19.1867 7.24568 19.3338 7.69149 19.4722 8.13965C19.5285 8.3211 19.5801 8.35786 19.7631 8.25149C20.1972 8.00043 20.6775 8.06926 21.1334 8.1592C21.5104 8.23741 21.7537 8.62848 21.7435 9.01954C21.7402 9.21011 21.6745 9.39436 21.5566 9.54408C21.4387 9.6938 21.2749 9.80077 21.0904 9.8486C20.8949 9.89709 20.6884 9.90335 20.3646 9.94402C20.7494 10.3085 21.0685 10.612 21.3861 10.9107C21.5067 11.0202 21.6017 11.1549 21.6644 11.3052C21.7271 11.4555 21.756 11.6177 21.749 11.7805C21.7396 13.0063 21.7396 14.2317 21.749 15.4565C21.749 15.8217 21.6481 16.133 21.3376 16.3332C21.1639 16.4451 21.1334 16.5835 21.1459 16.7618C21.2382 18.0367 20.8745 18.366 19.5872 18.2956C19.1453 18.2721 18.701 18.2956 18.2575 18.2909C17.6115 18.2846 17.265 17.9452 17.2463 17.3085C17.2228 16.4944 17.2228 16.4944 16.418 16.4944H8.75311C8.2549 16.4944 8.25568 16.4944 8.25333 17.0106C8.25333 17.1537 8.25881 17.2984 8.24707 17.4407C8.20484 17.9241 7.86931 18.2721 7.38673 18.2846C6.6703 18.3034 5.95231 18.3026 5.23588 18.2846C4.73766 18.2729 4.39431 17.91 4.36224 17.4094C4.35325 17.2792 4.35325 17.1486 4.36224 17.0184C4.38414 16.6985 4.36224 16.424 4.04078 16.2159C3.81162 16.0736 3.75061 15.7959 3.75061 15.5198C3.75531 14.2549 3.75531 12.9904 3.75061 11.7265C3.74559 11.583 3.77141 11.4402 3.82633 11.3075C3.88124 11.1749 3.96398 11.0556 4.06894 10.9577C4.39743 10.644 4.72906 10.3327 5.14437 9.94011ZM12.7076 15.8843C15.3392 15.8843 17.9708 15.8843 20.6024 15.8843C21.0889 15.8843 21.1381 15.8335 21.1397 15.3446C21.1397 14.7056 21.1483 14.0674 21.1397 13.4292C21.1311 12.791 21.3305 12.0824 21.0677 11.5372C20.8049 10.9921 20.1988 10.5885 19.7436 10.1231C19.735 10.1137 19.7248 10.1051 19.717 10.095C19.5942 9.93855 19.4346 9.89475 19.2375 9.89553C14.9098 9.89918 10.5843 9.89918 6.26125 9.89553C6.17131 9.89059 6.08139 9.90564 5.99795 9.93958C5.91451 9.97353 5.83963 10.0255 5.77867 10.0918C5.38761 10.4946 4.99655 10.8935 4.59062 11.2799C4.50961 11.3537 4.44609 11.4447 4.40468 11.5462C4.36328 11.6476 4.34504 11.7571 4.35129 11.8665C4.35989 13.0131 4.35129 14.1597 4.35598 15.3079C4.35598 15.8507 4.39352 15.889 4.93006 15.8898C7.52204 15.8898 10.1145 15.8892 12.7076 15.8882V15.8843ZM6.27846 9.25105C6.305 9.26459 6.33275 9.27558 6.36136 9.2839C10.5671 9.28755 14.7724 9.29277 18.9771 9.29955C19.2594 9.29955 19.1875 9.16267 19.1335 9.01016C18.925 8.38028 18.7151 7.75093 18.5039 7.1221C18.292 6.47762 18.0456 6.2993 17.3597 6.29852C15.5868 6.29852 13.8161 6.29852 12.0474 6.29852C10.7178 6.29852 9.3882 6.30399 8.06327 6.29852C7.66752 6.29852 7.29366 6.39159 7.14662 6.76779C6.8236 7.57964 6.56628 8.422 6.27846 9.25105ZM6.28784 16.4944C6.08058 16.4944 5.87253 16.4897 5.66214 16.4944C4.83934 16.5163 4.95822 16.3199 4.94023 17.2475C4.93554 17.5604 5.07476 17.6965 5.38761 17.6902C5.85689 17.6816 6.32225 17.6902 6.78997 17.6902C7.67534 17.6902 7.70349 17.6535 7.65031 16.7673C7.64171 16.5671 7.58305 16.4889 7.37891 16.4889C7.01522 16.5022 6.65153 16.4951 6.28784 16.4944ZM19.2 16.4944C18.9927 16.4944 18.7847 16.4897 18.5743 16.4944C17.7499 16.5155 17.8571 16.3207 17.8407 17.2405C17.8352 17.5807 17.9971 17.7004 18.3185 17.6918C18.7878 17.6785 19.2532 17.6918 19.7201 17.6918C20.5633 17.6918 20.5484 17.6918 20.5562 16.8541C20.5562 16.5468 20.4483 16.4748 20.1706 16.492C19.8507 16.51 19.5246 16.4944 19.2 16.4944ZM4.98012 9.29329C5.08805 9.29329 5.16627 9.29955 5.24292 9.29329C5.36962 9.28078 5.54638 9.35508 5.54873 9.11731C5.54873 8.91865 5.50571 8.75362 5.28124 8.71139C5.19266 8.69404 5.10204 8.68956 5.01219 8.69809C4.76582 8.72625 4.38648 8.58468 4.38648 8.99608C4.38648 9.40748 4.76738 9.25809 4.98012 9.29329ZM20.4264 9.29329C20.575 9.29329 20.6915 9.29876 20.8073 9.29329C20.9989 9.28156 21.1287 9.19161 21.1256 8.98044C21.1256 8.78647 20.9864 8.71217 20.8175 8.702C20.6375 8.69105 20.457 8.69105 20.277 8.702C20.0627 8.71295 19.9501 8.83653 19.9485 9.05239C19.9446 9.50055 20.2989 9.19396 20.4264 9.29329Z" fill="#333333" stroke="#333333" stroke-width="0.2"/>
<path d="M12.7454 11.6968C13.7747 11.6968 14.8032 11.6968 15.8317 11.6968C16.1688 11.6968 16.4621 11.7609 16.5911 12.1144C16.7202 12.468 16.5215 12.7096 16.2783 12.963C15.6424 13.6318 14.9049 13.8844 13.9734 13.8163C12.8979 13.7381 11.8123 13.7882 10.7322 13.8031C10.5638 13.8126 10.3952 13.7867 10.2373 13.7272C10.0794 13.6677 9.93578 13.5757 9.81557 13.4573C9.60987 13.2587 9.37836 13.0874 9.15623 12.9099C8.90047 12.7002 8.77768 12.4406 8.89813 12.1176C9.01388 11.8047 9.26416 11.7023 9.57936 11.7023C10.6373 11.7007 11.6927 11.6989 12.7454 11.6968ZM9.51288 12.3287C9.99154 12.9685 10.4139 13.1891 11.1084 13.1891C12.1745 13.1891 13.2452 13.1281 14.305 13.2094C15.0871 13.2696 15.5102 12.8246 16.0351 12.3248L9.51288 12.3287Z" fill="#333333" stroke="#333333" stroke-width="0.2"/>
<path d="M6.69978 13.7937C6.33609 13.7937 5.97162 13.8039 5.6048 13.7937C5.17463 13.7796 4.94859 13.5653 4.94234 13.1406C4.92982 11.8939 4.83205 11.7179 6.30168 11.6663C7.27386 11.6334 7.78772 12.2216 8.39074 12.7464C8.58002 12.9107 8.58393 13.1703 8.48851 13.4018C8.44486 13.5196 8.36538 13.6206 8.26127 13.6908C8.15716 13.7609 8.03366 13.7966 7.90817 13.7929C7.50537 13.8007 7.10258 13.7929 6.69978 13.7929V13.7937ZM7.92068 13.1907C7.39196 12.4954 6.7866 12.1543 5.96927 12.2983C5.83631 12.3217 5.63608 12.2302 5.58525 12.3921C5.51852 12.6304 5.51987 12.8827 5.58916 13.1203C5.59854 13.1563 5.69865 13.1868 5.75653 13.1875C6.45419 13.1922 7.15263 13.1907 7.92068 13.1907Z" fill="#333333" stroke="#333333" stroke-width="0.2"/>
<path d="M18.7507 13.7944H17.6557C17.3374 13.7944 17.091 13.6685 16.9886 13.3596C16.8861 13.0506 16.9886 12.8003 17.2389 12.5986C17.5204 12.3639 17.8012 12.1363 18.0773 11.9001C18.2355 11.7622 18.4401 11.6893 18.6498 11.696C19.0534 11.696 19.4562 11.6905 19.859 11.696C20.3283 11.7061 20.5371 11.9236 20.5496 12.3999C20.5559 12.6205 20.5551 12.8418 20.5496 13.0624C20.5387 13.5629 20.3306 13.778 19.8387 13.789C19.4789 13.8015 19.1144 13.7952 18.7507 13.7944ZM17.5893 13.193H19.432C19.9529 13.193 19.956 13.193 19.9411 12.6549C19.9372 12.5141 20.0045 12.3342 19.7573 12.3006C18.8923 12.1872 18.1485 12.3655 17.5893 13.193Z" fill="#333333" stroke="#333333" stroke-width="0.2"/>
<path d="M12.7336 14.69C13.5809 14.69 14.428 14.69 15.2747 14.69C15.4945 14.69 15.7252 14.6963 15.7299 14.9856C15.7346 15.275 15.5016 15.2915 15.2833 15.2915C13.5893 15.2915 11.8946 15.2915 10.1995 15.2915C9.97738 15.2915 9.75213 15.2649 9.76308 14.9786C9.77246 14.7182 9.97973 14.6931 10.1909 14.6939C11.0403 14.69 11.885 14.69 12.7336 14.69Z" fill="#333333" stroke="#333333" stroke-width="0.2"/>
<path d="M6.6058 14.69C6.92961 14.69 7.25341 14.69 7.57799 14.69C7.79073 14.69 7.94324 14.7784 7.94012 15.0029C7.94012 15.207 7.78369 15.2891 7.59285 15.2899C6.93169 15.293 6.27053 15.293 5.60937 15.2899C5.41931 15.2899 5.2668 15.2046 5.26758 14.9982C5.26758 14.7737 5.42401 14.6908 5.63362 14.6923C5.95742 14.69 6.28122 14.69 6.6058 14.69Z" fill="#333333" stroke="#333333" stroke-width="0.2"/>
<path d="M18.9117 14.69C19.2355 14.69 19.5593 14.69 19.8839 14.69C20.0818 14.69 20.2195 14.7799 20.2281 14.9786C20.2367 15.1773 20.0951 15.2836 19.9019 15.2852C19.2277 15.2899 18.5535 15.2899 17.8793 15.2852C17.6861 15.2852 17.5438 15.1804 17.5532 14.9778C17.5626 14.7753 17.7018 14.69 17.9004 14.6908C18.2375 14.69 18.5746 14.69 18.9117 14.69Z" fill="#333333" stroke="#333333" stroke-width="0.2"/>
</svg>
