<svg width="25" height="24" viewBox="0 0 25 24" fill="none" xmlns="http://www.w3.org/2000/svg">
<g clip-path="url(#clip0_201_28719)">
<path d="M8.17817 7.73351C8.87437 5.29281 10.2801 4.07246 12.31 4.09247C14.2746 4.11247 15.6777 5.3635 16.3205 7.73884C16.4059 7.49477 16.4619 7.32539 16.5232 7.15734C17.002 5.86631 17.929 5.09675 19.292 4.98472C20.5457 4.88336 21.5593 5.43418 22.1915 6.5225C22.8757 7.6935 22.7984 8.87517 21.9901 9.96081C21.71 10.3356 21.7327 10.437 22.1488 10.6477C23.5466 11.3519 24.2321 12.5269 24.2468 14.0887C24.2654 16.0039 24.2641 16.0052 22.4156 16.6134C21.9327 16.7845 21.4321 16.9004 20.9232 16.9588C20.6177 16.9868 20.375 16.8868 20.327 16.568C20.279 16.2493 20.4817 16.0679 20.7804 16.0185C21.5056 15.91 22.2127 15.7036 22.8824 15.405C23.0598 15.3237 23.2825 15.2717 23.2825 15.0116C23.2825 14.2807 23.3759 13.5365 23.0424 12.847C22.6303 11.9947 21.9821 11.4079 21.0205 11.2932C20.0253 11.1885 19.0221 11.1858 18.0263 11.2852C17.7618 11.3169 17.5044 11.3927 17.2648 11.5093C16.4846 11.8627 16.4752 11.9814 17.0634 12.6002C17.8673 13.417 18.3396 14.5029 18.3891 15.6478C18.4131 16.1813 18.3331 16.7228 18.4104 17.2482C18.5438 18.1192 18.1304 18.5019 17.3755 18.8194C13.7638 20.3371 10.2081 20.2718 6.66841 18.5966C6.24562 18.3966 6.06423 18.1445 6.09758 17.6737C6.13492 17.1402 6.11225 16.6067 6.09758 16.0732C6.07357 14.6061 6.57638 13.3685 7.66603 12.3988C8.0288 12.0761 7.91143 11.932 7.60468 11.716C6.59505 11.0038 3.33679 11.0198 2.33917 11.752C1.43891 12.4175 0.917427 13.9833 1.22151 15.0556C1.29087 15.2957 1.48826 15.3437 1.65764 15.421C2.2865 15.7034 2.9511 15.8981 3.63287 15.9999C3.94763 16.0466 4.21704 16.1826 4.17303 16.5454C4.12368 16.9455 3.81026 16.9962 3.46749 16.9455C2.44586 16.7948 1.49493 16.4307 0.571995 15.9825C0.487409 15.9512 0.413762 15.8959 0.360012 15.8234C0.306263 15.751 0.274727 15.6645 0.269241 15.5744C0.281245 14.5368 0.117198 13.4858 0.571995 12.4869C0.941358 11.6432 1.61045 10.9665 2.44987 10.5877C2.71661 10.4636 2.84998 10.3969 2.60724 10.0835C1.71365 8.95519 1.59629 7.72417 2.3405 6.48248C2.98602 5.40618 4.00364 4.86335 5.25734 4.99139C6.73909 5.1421 7.66869 6.02102 8.06881 7.45476C8.08615 7.51745 8.11949 7.57613 8.17817 7.73351ZM12.254 12.1281C11.7205 12.1281 11.187 12.1094 10.6535 12.1281C9.71236 12.1733 8.82244 12.5702 8.16 13.2403C7.49755 13.9104 7.11087 14.8048 7.07652 15.7465C7.06185 16.1906 7.10587 16.6387 7.05785 17.0802C7.00184 17.5937 7.23124 17.8284 7.6807 18.0138C10.5655 19.1901 13.465 19.2541 16.3885 18.1818C17.4435 17.7937 17.4395 17.7817 17.4382 16.6867C17.4382 16.376 17.4382 16.0652 17.4302 15.7531C17.3965 14.8111 17.0104 13.9161 16.3481 13.2452C15.6859 12.5744 14.796 12.1766 13.8545 12.1308C13.321 12.1081 12.7875 12.1281 12.254 12.1281ZM15.3042 8.08027C15.2994 7.27096 14.9734 6.49668 14.3977 5.92778C13.8221 5.35889 13.044 5.04196 12.2347 5.04674C11.4253 5.05151 10.6511 5.3776 10.0822 5.95325C9.51328 6.5289 9.19636 7.30697 9.20113 8.11629C9.2118 9.76076 10.6362 11.1745 12.2713 11.1612C13.9065 11.1478 15.3216 9.72475 15.3042 8.08027ZM5.0266 10.2516C5.59942 10.2438 6.14579 10.0092 6.54584 9.59915C6.94589 9.1891 7.16696 8.63711 7.16055 8.06427C7.14054 6.89327 6.12692 5.89832 4.96659 5.91966C3.80625 5.941 2.7993 6.97462 2.8193 8.12429C2.8367 8.69684 3.07734 9.23989 3.48979 9.63739C3.90224 10.0349 4.4538 10.2553 5.0266 10.2516ZM19.5041 10.2516C20.0766 10.2479 20.625 10.0208 21.0326 9.61871C21.4401 9.21664 21.6746 8.67134 21.686 8.09895C21.6716 7.52662 21.4386 6.98155 21.0347 6.57574C20.6309 6.16993 20.087 5.9342 19.5148 5.91699C18.9413 5.92763 18.3944 6.16053 17.9893 6.56659C17.5843 6.97265 17.3527 7.52014 17.3435 8.09361C17.3449 8.66609 17.573 9.21469 17.9779 9.61937C18.3829 10.024 18.9316 10.2518 19.5041 10.2529V10.2516ZM9.71995 11.2038C8.87479 10.4679 8.33493 9.44291 8.20618 8.32968C8.05947 8.76847 8.00346 9.03388 7.88609 9.26328C7.6927 9.64872 7.21923 10.0902 7.30726 10.3703C7.40462 10.6877 8.05014 10.7957 8.35022 11.0998C8.76901 11.5279 9.15312 11.5893 9.71995 11.2038ZM14.724 11.2772C15.2029 11.3372 15.4923 11.712 15.851 11.3519C16.1925 11.0025 16.6007 10.7254 17.0514 10.537C17.2501 10.4556 17.3701 10.3609 17.1727 10.1595C16.718 9.69674 16.5352 9.09257 16.2845 8.33101C16.1378 9.58337 15.5976 10.4556 14.7227 11.2772H14.724Z" fill="white" stroke="white" stroke-width="0.3"/>
</g>
<defs>
<clipPath id="clip0_201_28719">
<rect width="24" height="24" fill="white" transform="translate(0.25)"/>
</clipPath>
</defs>
</svg>
