<svg width="25" height="24" viewBox="0 0 25 24" fill="none" xmlns="http://www.w3.org/2000/svg">
<path d="M3.10742 7.42855H21.3931M5.39314 2.85712H19.1074C19.7136 2.85712 20.295 3.09793 20.7237 3.52659C21.1523 3.95524 21.3931 4.53662 21.3931 5.14283V18.8571C21.3931 19.4633 21.1523 20.0447 20.7237 20.4734C20.295 20.902 19.7136 21.1428 19.1074 21.1428H5.39314C4.78693 21.1428 4.20555 20.902 3.77689 20.4734C3.34824 20.0447 3.10742 19.4633 3.10742 18.8571V5.14283C3.10742 4.53662 3.34824 3.95524 3.77689 3.52659C4.20555 3.09793 4.78693 2.85712 5.39314 2.85712V2.85712Z" stroke="#333333" stroke-linecap="round" stroke-linejoin="round"/>
<path d="M12.2503 13.1428C12.8815 13.1428 13.3931 12.6312 13.3931 12C13.3931 11.3688 12.8815 10.8571 12.2503 10.8571C11.6191 10.8571 11.1074 11.3688 11.1074 12C11.1074 12.6312 11.6191 13.1428 12.2503 13.1428Z" fill="#333333"/>
<path d="M7.67899 13.1428C8.31017 13.1428 8.82185 12.6312 8.82185 12C8.82185 11.3688 8.31017 10.8571 7.67899 10.8571C7.04781 10.8571 6.53613 11.3688 6.53613 12C6.53613 12.6312 7.04781 13.1428 7.67899 13.1428Z" fill="#333333"/>
<path d="M16.8216 13.1428C17.4528 13.1428 17.9644 12.6312 17.9644 12C17.9644 11.3688 17.4528 10.8571 16.8216 10.8571C16.1904 10.8571 15.6787 11.3688 15.6787 12C15.6787 12.6312 16.1904 13.1428 16.8216 13.1428Z" fill="#333333"/>
<path d="M12.2503 17.7142C12.8815 17.7142 13.3931 17.2026 13.3931 16.5714C13.3931 15.9402 12.8815 15.4285 12.2503 15.4285C11.6191 15.4285 11.1074 15.9402 11.1074 16.5714C11.1074 17.2026 11.6191 17.7142 12.2503 17.7142Z" fill="#333333"/>
<path d="M7.67899 17.7142C8.31017 17.7142 8.82185 17.2026 8.82185 16.5714C8.82185 15.9402 8.31017 15.4285 7.67899 15.4285C7.04781 15.4285 6.53613 15.9402 6.53613 16.5714C6.53613 17.2026 7.04781 17.7142 7.67899 17.7142Z" fill="#333333"/>
<path d="M16.8216 17.7142C17.4528 17.7142 17.9644 17.2026 17.9644 16.5714C17.9644 15.9402 17.4528 15.4285 16.8216 15.4285C16.1904 15.4285 15.6787 15.9402 15.6787 16.5714C15.6787 17.2026 16.1904 17.7142 16.8216 17.7142Z" fill="#333333"/>
</svg>
